<?xml version="1.0" encoding="utf-8"?>
<!-- Generator: Adobe Illustrator 26.0.1, SVG Export Plug-In . SVG Version: 6.00 Build 0)  -->
<svg version="1.1" id="Layer_1" xmlns="http://www.w3.org/2000/svg" xmlns:xlink="http://www.w3.org/1999/xlink" x="0px" y="0px"
	 width="135.4px" height="61.8px" viewBox="0 0 135.4 61.8" style="enable-background:new 0 0 135.4 61.8;" xml:space="preserve">
<style type="text/css">
	.st0{fill:#06467A;}
</style>
<g>
	<g>
		<g>
			<g>
				<path class="st0" d="M0,0.9h15v38.7H0V0.9z"/>
				<path class="st0" d="M46.6,9.8c-6.4,0-10,3.7-10,10.5s3.5,10.4,10,10.4c4.6,0,7.5-2.1,8.4-6.3h17.3C70.8,35.1,62,40.7,46.6,40.7
					c-17.3,0-26-7-26-20.3C20.6,7,29.4,0,46.6,0c16.2,0,25.1,6.2,25.6,17.3H55C54.6,12.4,51.7,9.8,46.6,9.8z"/>
				<path class="st0" d="M77.4,0.9h22.3l6.5,23.6l7.1-23.6h22v38.7h-13.9V9.3l-9.3,30.3h-11.7L91.3,9.3v30.3h-14L77.4,0.9L77.4,0.9z
					"/>
			</g>
		</g>
	</g>
	<g>
		<path class="st0" d="M82,61.6V48.9h-4.8v-1.7h11.5v1.7h-4.8v12.7H82z"/>
		<path class="st0" d="M89.7,61.6V51.1h1.6v1.6c0.4-0.7,0.8-1.2,1.1-1.4c0.3-0.2,0.7-0.3,1.1-0.3c0.6,0,1.2,0.2,1.8,0.6l-0.6,1.6
			c-0.4-0.3-0.8-0.4-1.3-0.4c-0.4,0-0.7,0.1-1,0.3s-0.5,0.5-0.6,0.9c-0.2,0.6-0.3,1.3-0.3,2v5.5h-1.8V61.6z"/>
		<path class="st0" d="M103.2,60.3c-0.6,0.5-1.3,0.9-1.9,1.2c-0.6,0.2-1.2,0.3-1.9,0.3c-1.1,0-2-0.3-2.6-0.8
			c-0.6-0.5-0.9-1.3-0.9-2.1c0-0.5,0.1-1,0.3-1.4c0.2-0.4,0.5-0.7,0.9-1c0.4-0.2,0.8-0.4,1.2-0.6c0.3-0.1,0.9-0.2,1.5-0.3
			c1.4-0.2,2.4-0.4,3.2-0.6c0-0.2,0-0.4,0-0.5c0-0.7-0.2-1.2-0.5-1.5c-0.4-0.4-1.1-0.6-2-0.6c-0.8,0-1.4,0.1-1.8,0.4
			c-0.4,0.3-0.7,0.8-0.9,1.5l-1.7-0.2c0.2-0.7,0.4-1.3,0.8-1.8c0.4-0.4,0.9-0.8,1.5-1c0.7-0.2,1.4-0.4,2.3-0.4s1.6,0.1,2.1,0.3
			s0.9,0.5,1.2,0.8s0.4,0.7,0.5,1.2c0.1,0.3,0.1,0.8,0.1,1.6v2.3c0,1.6,0,2.6,0.1,3.2c0.1,0.4,0.2,0.8,0.4,1.2h-1.8
			C103.4,61.2,103.3,60.8,103.2,60.3z M103.1,56.3c-0.6,0.3-1.6,0.5-2.8,0.7c-0.7,0.1-1.2,0.2-1.5,0.3s-0.5,0.3-0.7,0.6
			c-0.2,0.2-0.2,0.5-0.2,0.8c0,0.5,0.2,0.8,0.5,1.2c0.4,0.3,0.9,0.5,1.5,0.5c0.7,0,1.3-0.1,1.8-0.4s0.9-0.7,1.1-1.2
			c0.2-0.4,0.3-1,0.3-1.7L103.1,56.3L103.1,56.3z"/>
		<path class="st0" d="M114.3,61.6v-1.3c-0.6,1-1.6,1.5-2.9,1.5c-0.8,0-1.6-0.2-2.2-0.7c-0.7-0.4-1.2-1.1-1.6-1.9
			c-0.4-0.8-0.6-1.7-0.6-2.8c0-1,0.2-1.9,0.5-2.8c0.3-0.8,0.9-1.5,1.5-1.9c0.7-0.4,1.4-0.7,2.3-0.7c0.6,0,1.2,0.1,1.6,0.4
			c0.5,0.3,0.9,0.6,1.2,1v-5.2h1.7v14.3L114.3,61.6L114.3,61.6z M108.8,56.4c0,1.3,0.3,2.3,0.8,2.9c0.6,0.6,1.2,1,2,1
			s1.4-0.3,1.9-0.9s0.8-1.6,0.8-2.8c0-1.4-0.3-2.4-0.8-3.2c-0.5-0.7-1.2-1-2-1s-1.4,0.3-1.9,0.9C109,54,108.8,55,108.8,56.4z"/>
		<path class="st0" d="M125.8,58.3l1.8,0.2c-0.3,1-0.8,1.9-1.6,2.4s-1.7,0.9-2.9,0.9c-1.5,0-2.7-0.5-3.7-1.4s-1.3-2.2-1.3-4
			c0-1.7,0.4-3.2,1.3-4.1c0.9-1,2-1.4,3.5-1.4s2.5,0.5,3.5,1.4c0.9,0.9,1.3,2.2,1.3,4c0,0.1,0,0.3,0,0.5H120c0.1,1.1,0.4,2,1,2.6
			s1.3,0.9,2.1,0.9c0.6,0,1.2-0.2,1.6-0.5C125.2,59.5,125.5,59,125.8,58.3z M120,55.4h5.8c-0.1-0.9-0.3-1.5-0.7-1.9
			c-0.6-0.7-1.3-1-2.1-1s-1.5,0.3-2,0.8C120.4,53.8,120,54.5,120,55.4z"/>
		<path class="st0" d="M129.8,61.6V51.1h1.6v1.6c0.4-0.7,0.8-1.2,1.1-1.4s0.7-0.3,1.1-0.3c0.6,0,1.2,0.2,1.8,0.6l-0.6,1.6
			c-0.4-0.3-0.8-0.4-1.3-0.4c-0.4,0-0.7,0.1-1,0.3s-0.5,0.5-0.6,0.9c-0.2,0.6-0.3,1.3-0.3,2v5.5h-1.8V61.6z"/>
	</g>
</g>
</svg>
